<?xml version="1.0" standalone="no"?>
<!DOCTYPE svg PUBLIC "-//W3C//DTD SVG 20010904//EN"
 "http://www.w3.org/TR/2001/REC-SVG-20010904/DTD/svg10.dtd">
<svg version="1.0" xmlns="http://www.w3.org/2000/svg"
 width="322.000000pt" height="322.000000pt" viewBox="0 0 322.000000 322.000000"
 preserveAspectRatio="xMidYMid meet">
<metadata>
Created by potrace 1.11, written by Peter Selinger 2001-2013
</metadata>
<g transform="translate(0.000000,322.000000) scale(0.100000,-0.100000)"
fill="#000000" stroke="none">
<path d="M1675 3184 c-37 -31 -307 -223 -510 -364 -276 -190 -440 -325 -496
-406 -34 -50 -37 -91 -15 -206 27 -139 84 -282 171 -428 65 -109 86 -147 139
-250 75 -147 75 -149 23 -197 -63 -57 -183 -146 -362 -268 -284 -193 -407
-299 -441 -382 -22 -52 -18 -150 9 -208 49 -105 208 -211 382 -255 65 -16 111
-20 250 -19 175 1 250 12 250 39 0 11 -22 18 -80 26 -200 30 -505 132 -658
222 -84 49 -120 118 -81 156 54 55 447 -34 1014 -229 247 -85 423 -162 516
-225 63 -44 69 -60 42 -115 -25 -50 -18 -65 30 -65 62 0 275 174 731 598 25
23 96 78 156 122 131 94 190 152 182 175 -10 24 -36 29 -74 16 -23 -9 -38 -10
-45 -3 -6 6 -6 114 1 303 6 162 12 409 13 549 1 246 1 257 -22 308 -40 91 -97
128 -311 199 -61 20 -113 42 -116 49 -9 23 46 63 207 154 245 138 371 236 439
340 32 50 36 62 36 126 0 62 -3 75 -28 107 -52 69 -188 128 -341 149 -203 27
-567 -16 -601 -72 -17 -27 14 -30 136 -14 106 14 141 14 244 4 186 -19 331
-68 441 -148 49 -36 57 -57 35 -102 -22 -47 -73 -63 -171 -55 -85 7 -275 38
-365 60 -33 8 -99 23 -147 35 -113 26 -246 70 -328 108 -95 43 -149 86 -171
137 -10 23 -26 46 -35 49 -19 7 -14 10 -49 -20z m-53 -184 c-70 -65 -122 -95
-137 -79 -7 7 6 25 40 56 74 67 137 105 149 92 8 -8 -7 -28 -52 -69z m157 -11
c-17 -33 -141 -129 -166 -129 -31 0 -29 11 10 52 56 61 139 118 154 106 9 -7
10 -15 2 -29z m137 -31 c8 -12 -87 -107 -140 -139 -53 -32 -87 -18 -53 22 28
34 160 129 179 129 4 0 10 -5 14 -12z m154 -42 c0 -29 -158 -154 -201 -158
-44 -5 -29 22 46 84 43 35 87 68 99 75 28 17 56 16 56 -1z m110 -60 c0 -39
-127 -146 -175 -146 -8 0 -15 4 -15 8 0 10 117 124 150 146 33 22 40 20 40 -8z
m160 -40 c0 -31 -188 -161 -206 -143 -6 6 53 65 117 119 45 38 89 50 89 24z
m150 -24 c0 -10 -59 -65 -122 -115 -42 -34 -98 -50 -98 -29 0 21 82 86 165
131 43 23 55 26 55 13z m-1064 -72 c94 -53 291 -134 409 -169 78 -23 364 -81
398 -81 12 0 40 -5 62 -11 l39 -11 -33 -30 -34 -31 -136 6 c-117 4 -149 9
-231 36 -131 44 -287 120 -400 196 -100 67 -192 144 -174 145 6 0 51 -23 100
-50z m1214 42 c0 -22 -146 -142 -173 -142 -20 0 -22 16 -4 34 73 73 177 136
177 108z m160 -21 c0 -5 -24 -29 -52 -54 -90 -76 -165 -102 -102 -36 64 68
154 121 154 90z m-1374 -204 c105 -53 272 -122 339 -140 33 -9 130 -30 214
-47 85 -17 157 -33 160 -36 3 -2 -60 -70 -139 -150 -253 -255 -409 -384 -462
-384 -18 0 -38 24 -100 118 -133 202 -215 373 -243 505 -8 40 -19 88 -24 107
-5 19 -12 62 -16 96 -5 49 -3 64 9 77 15 15 24 11 105 -48 48 -35 119 -79 157
-98z m-328 91 c-3 -24 -225 -211 -243 -205 -12 4 -7 47 7 64 20 25 211 163
225 163 9 0 13 -8 11 -22z m32 -139 c0 -12 -15 -36 -34 -54 -50 -46 -235 -170
-243 -162 -19 20 30 74 137 152 63 47 121 85 128 85 6 0 12 -10 12 -21z m30
-129 c0 -26 -219 -210 -251 -210 -30 0 -22 22 24 67 109 107 227 181 227 143z
m1150 -97 c0 -5 -4 -13 -8 -19 -13 -19 -145 -124 -150 -119 -6 6 54 73 102
113 37 31 56 40 56 25z m-1110 -24 c0 -23 -22 -48 -87 -101 -93 -74 -144 -108
-165 -108 -35 0 -17 31 48 82 37 29 87 72 112 96 43 39 92 56 92 31z m1250
-17 c0 -24 -165 -153 -186 -145 -33 12 -12 44 64 97 69 50 122 70 122 48z
m124 -41 c12 -19 -9 -43 -82 -91 -67 -45 -108 -60 -104 -37 1 4 33 37 72 72
65 61 101 78 114 56z m116 -77 c-13 -20 -125 -117 -169 -146 -68 -46 -84 1
-18 54 127 105 226 153 187 92z m-1450 7 c0 -11 -16 -32 -37 -47 -21 -16 -67
-53 -103 -85 -74 -64 -107 -79 -116 -54 -8 20 28 60 76 85 19 10 44 27 55 37
94 86 125 101 125 64z m1520 -79 c0 -20 -240 -232 -262 -232 -10 0 -10 41 0
56 12 19 236 184 250 184 6 0 12 -4 12 -8z m-1460 -20 c0 -19 -163 -158 -223
-188 -21 -11 -32 -13 -40 -5 -13 13 47 71 153 147 69 49 110 66 110 46z m742
-73 c80 -17 193 -72 215 -105 13 -20 20 -56 24 -129 4 -55 12 -190 19 -300 23
-362 2 -718 -48 -814 -23 -44 -35 -48 -61 -20 -18 20 -21 35 -21 113 1 50 8
156 16 236 8 80 18 243 21 363 6 253 -7 423 -40 507 -22 54 -23 56 -114 100
-51 25 -95 48 -99 53 -10 10 27 9 88 -4z m-694 -36 c-2 -9 -23 -32 -48 -51
-25 -19 -69 -55 -98 -80 -74 -64 -91 -75 -107 -68 -25 9 -17 25 32 59 26 17
76 57 112 88 82 69 116 85 109 52z m1366 -81 c-62 -54 -194 -146 -200 -139 -3
3 0 13 7 24 15 23 139 130 193 165 36 25 41 26 45 11 2 -11 -14 -33 -45 -61z
m-768 7 c17 -5 45 -24 62 -42 37 -38 53 -113 77 -369 37 -397 36 -708 -1 -750
-10 -10 -21 -18 -25 -18 -4 0 -72 32 -151 70 -79 39 -172 81 -208 95 -36 13
-137 51 -225 85 -190 74 -364 125 -478 140 -141 20 -146 21 -152 30 -3 5 79
73 182 151 104 79 240 183 303 233 63 49 138 107 165 128 28 22 110 87 184
145 73 58 145 109 160 113 27 8 53 5 107 -11z m-526 -18 c0 -13 -102 -104
-175 -156 -63 -45 -95 -56 -95 -32 0 19 20 40 70 75 25 18 71 52 103 77 54 42
97 58 97 36z m1340 -77 c0 -24 -115 -125 -212 -187 -35 -22 -38 -22 -38 6 0
25 21 47 85 90 22 15 62 43 90 62 45 32 75 44 75 29z m-1280 -23 c0 -12 -111
-114 -165 -151 -42 -29 -75 -39 -75 -22 0 12 68 74 144 131 66 48 96 62 96 42z
m1290 -123 c0 -29 -216 -208 -251 -208 -55 0 -2 55 193 198 34 24 58 29 58 10z
m-10 -165 c0 -10 -17 -29 -37 -43 -21 -14 -73 -53 -116 -87 -42 -35 -80 -63
-82 -63 -13 0 -2 38 18 62 26 32 186 148 204 148 7 0 13 -8 13 -17z m0 -146
c0 -7 -12 -25 -27 -38 -43 -39 -193 -149 -204 -149 -11 0 -12 21 -1 35 10 15
142 129 172 148 29 20 60 22 60 4z m0 -146 c0 -14 -43 -55 -95 -91 -27 -18
-70 -51 -94 -72 -83 -72 -99 -39 -18 39 88 86 207 158 207 124z m-1909 -156
c-47 -60 -214 -175 -230 -159 -17 16 190 184 227 184 l23 0 -20 -25z m1891 0
c-6 -38 -12 -45 -80 -89 -38 -25 -75 -52 -82 -61 -22 -26 -68 -47 -76 -34 -10
17 27 60 102 115 38 28 78 61 89 72 25 25 51 23 47 -3z m-2107 -31 c-69 -62
-153 -119 -163 -110 -9 10 52 64 132 117 78 52 93 49 31 -7z m389 21 c-9 -22
-195 -175 -222 -182 -29 -7 -39 3 -26 24 19 31 209 172 231 172 16 1 21 -3 17
-14z m105 -61 c-55 -59 -179 -154 -199 -154 -29 0 -16 19 51 74 128 106 220
155 148 80z m121 -56 c-92 -84 -157 -130 -181 -126 -21 3 -21 4 7 32 50 51
187 146 208 146 17 -1 10 -11 -34 -52z m183 -2 c-11 -19 -141 -134 -178 -157
-36 -22 -65 -25 -65 -5 0 16 66 73 155 134 61 42 104 55 88 28z m1266 -59
c-19 -16 -47 -36 -64 -44 -16 -9 -50 -33 -74 -54 -41 -36 -71 -50 -71 -31 0
16 19 33 125 112 90 67 111 79 114 64 2 -12 -9 -29 -30 -47z m-1129 16 c0 -14
-14 -29 -50 -53 -19 -13 -61 -47 -92 -77 -53 -50 -89 -65 -102 -44 -11 18 192
181 225 181 10 0 19 -3 19 -7z m120 -57 c0 -24 -194 -176 -224 -176 -25 0 -19
24 12 42 15 10 59 46 97 82 68 63 115 84 115 52z m114 -55 c7 -11 -111 -121
-157 -146 -20 -11 -42 -15 -53 -11 -17 6 -17 8 2 26 34 34 179 140 191 140 6
0 14 -4 17 -9z m126 -56 c0 -19 -34 -53 -114 -111 -53 -40 -106 -57 -106 -35
0 6 29 36 65 68 92 82 155 114 155 78z m115 -54 c14 -24 -154 -161 -198 -161
-27 0 -20 12 36 67 84 83 146 118 162 94z m115 -60 c0 -15 -131 -129 -167
-146 -90 -43 -32 40 81 116 57 38 86 48 86 30z m100 -66 c0 -12 -86 -98 -130
-130 -53 -39 -90 -46 -90 -17 0 23 39 60 119 111 56 36 101 52 101 36z"/>
</g>
</svg>
