<?xml version="1.0" encoding="UTF-8" standalone="no"?>
<svg xmlns="http://www.w3.org/2000/svg" viewBox="0 0 144.65 160.25"><title>s</title><g id="Layer_2" data-name="Layer 2"><g id="Layer_1-2" data-name="Layer 1"><path d="M82.27,159.08l2.34-4.29q-2.34-6.24-35.29-17-30.6-10.14-40.94-10.14H5.65a2.85,2.85,0,0,0-2.14,3.12q0,4.88,14.62,10.33,11.7,4.49,18.52,5.46Q38,148,45,148l.39.78q0,2.16-14.42,2.15A41,41,0,0,1,11.11,146Q0,140.16,0,130.42,0,123,19.3,110.34q10.92-7.22,16.86-11.8T43.47,92q-1-4.68-11.11-21.83Q24,55.75,24,43.08,24,38,47.18,21.83,61,12.29,68.43,7T77,.39c.52-.13,1.24.26,2.15,1.17q0,7.22,24.56,13.65,10.14,2.53,17.74,3.8a80.89,80.89,0,0,0,12.87,1.26c1.3-.39,2.6-.84,3.9-1.36l1.56-3.31-.39-1.95Q128.67,4.1,107.81,4.09c-.14,0-1.11.1-2.93.3s-4.55.55-8.19,1.07l-.78-.59q0-2.13,10-3.7A74.19,74.19,0,0,1,116.77,0a53.7,53.7,0,0,1,17,2.53Q144.65,6,144.65,13.26c0,4.28-3,8.84-9,13.64q-4.29,3.51-17,10.72-9,4.88-9,6.83c0,.39,1.3,1,3.9,1.75q10.72,3.31,13.45,5.26,6,3.91,5.66,12.48l-.59,37.43-.58,7.6q-.39,6.24.58,6.83l4.49-1.56,1.56,1.75q0,1.17-6.44,6.05l-8.18,5.84-4.68,4.39q-4.48,4.2-13.45,12.38-11.7,10.53-19.11,15.21l-1,.39C83.44,160.25,82.39,159.86,82.27,159.08ZM14.82,118.72a.89.89,0,0,0,1,.59q1.17,0,5.65-3.71,4.88-3.7,4.88-4.87-1.37,0-5.85,3.31C17.35,116.25,15.46,117.81,14.82,118.72Zm7.6,1.17q0,.39.78.39,1.36,0,5.26-2.73l2.34-2c.78-.65,1.62-1.3,2.54-1.95a7.77,7.77,0,0,0,1.17-1.46,4.56,4.56,0,0,1,.78-1.07v-.2c0-.39-.27-.58-.78-.58-1,0-3.19,1.3-6.44,3.9q-2.14,2-3.6,3.31A11.66,11.66,0,0,0,22.42,119.89Zm7.41,1A1,1,0,0,0,31,122a6.15,6.15,0,0,0,3.7-1.86q2.14-1.84,4.68-3.8,3.9-3.31,3.9-4.09v-1a3.57,3.57,0,0,0-2.15.39L38,114l-3.11,2.34C31.51,119,29.83,120.48,29.83,120.87Zm4.87-12.68a83.89,83.89,0,0,1,23,4.88q.39.2,5.85,2.24t16.18,6.14q4.29,2.14,8,3.9c2.46,1.17,4.74,2.28,6.82,3.31l2-1.17q1.17-3.51,1.17-12.28,0-8-1.17-22.42-1.56-17.92-3.12-20.47Q90.65,68.24,85,68.23a6.53,6.53,0,0,0-4.68,2.15Q53.41,92,33.34,106.83Zm-1-69.4c0,.91.25,1.37.78,1.37.25,0,1.62-1,4.09-3.12a78.6,78.6,0,0,1,6.24-5c1.43-1,2.14-2,2.14-3a.86.86,0,0,0-1-1q-1.17,0-4.29,2.54c-1.3,1-2.24,1.78-2.83,2.24s-.94.75-1.07.88C35.09,35.28,33.73,37,33.73,38.79Zm.39,7.8c0,.52.19.78.58.78s2.47-1.3,6.24-3.9c3.9-2.85,6-4.48,6.43-4.87a3.2,3.2,0,0,0,1-2.34q0-1.56-.78-1.56-.59,0-9.17,6.63a9.49,9.49,0,0,0-3.11,2.53A8.23,8.23,0,0,0,34.12,46.59Zm1.75,6.24c0,.26.32.52,1,.78q1.55,0,7.21-4.87,5.85-4.87,5.85-6.05c0-.65-.2-1-.59-1h-.39a9.23,9.23,0,0,0-1.36.19c-1,.91-2.15,1.79-3.32,2.64S42,46.27,40.94,47.18Q35.87,51.27,35.87,52.83Zm13.26,60.82q-1.17,0-6.83,4.49t-5.65,5.45a8.82,8.82,0,0,0,3.12-.58,59.4,59.4,0,0,0,5.65-4.48q4.48-3.9,4.49-4.29C49.91,113.85,49.64,113.65,49.13,113.65Zm-11.31-55q0,.78,1.17.78c1,0,3.44-1.49,7.21-4.49s5.85-5.06,5.85-5.84v-1A2.73,2.73,0,0,0,50.88,48a4.07,4.07,0,0,0-3.61,1.95A8.63,8.63,0,0,1,43.47,53a27.53,27.53,0,0,0-3.12,2.73C38.66,57.31,37.82,58.29,37.82,58.68Zm2.53,5.07q0,1.56,1.17,1.56,1.56,0,3.51-2,3.12-2.73,4.49-3.9a22,22,0,0,0,3.9-2.83,2.52,2.52,0,0,0,.78-1.46c0-.78-.27-1.17-.78-1.17a5.49,5.49,0,0,0-3.71,2q-1.56,1.56-3.31,3.12c-1.69.91-2.67,1.43-2.93,1.56Zm2.93,5.46c0,.77.32,1.17,1,1.17s3.12-1.56,7-4.68,5.85-5.2,5.85-5.85c0-.39-.39-.59-1.17-.59s-3,1.5-7,4.49Q43.27,68.23,43.28,69.21Zm12.47,46.2a5.91,5.91,0,0,0-1.94,1q-9.95,7-10,8.58H46.4c.26,0,2.07-1.37,5.46-4.09s4.87-4.42,4.87-4.68C56.73,115.67,56.4,115.41,55.75,115.41ZM45.62,74.47c0,.91.39,1.36,1.17,1.36q1.56,0,7.79-6c1-.65,2.15-1.4,3.32-2.24a3.67,3.67,0,0,0,1.75-3,5.53,5.53,0,0,0-4.48,2.14,38.49,38.49,0,0,1-6.82,5.26c-1.05.78-1.76,1.31-2.15,1.56A1.16,1.16,0,0,0,45.62,74.47Zm21.83-2.73,1.37.19q3.11,0,15.59-11.89l7.41-7.41q3.71-3.69,7.6-7.4l-.78-.78Q83.82,41.72,79,40.35q-6.44-1.93-18.71-8.18l-5.36-3.71a41.59,41.59,0,0,1-3.8-2.92h-.2l-1.17.58a9.37,9.37,0,0,0-.58,1.37c0,.52.06,1.49.19,2.92s.2,2.54.2,3.32A39.23,39.23,0,0,1,51,38.79c.32,1.56.55,2.86.68,3.9Q56.15,56.15,67.45,71.74ZM49.13,80.51a1.51,1.51,0,0,0,.58.2.55.55,0,0,1,.39.19,62.29,62.29,0,0,0,7.21-5.26q5.46-4.29,5.46-5.26a.86.86,0,0,0-1-1c-.91,0-2.21.72-3.9,2.14s-3.19,2.61-4.48,3.51S51,76.74,50.1,77.39a2.82,2.82,0,0,0-1,2Zm1.56,45.62c0,.91.58,1.36,1.75,1.36q2.14,0,8.19-6c1.3-1,2.21-1.75,2.73-2.14a4.34,4.34,0,0,0,.39-2q-1.76,0-6.83,3.7A60.58,60.58,0,0,0,50.69,126.13Zm2.92-42.3a.69.69,0,0,0,.78.78q1.76,0,6.63-4.29,5.07-4.48,5.07-5.85H64.33Q53.61,82.27,53.61,83.83Zm3.51-62.39c0,.39.84,1.37,2.53,2.93q6.43,5.85,17.55,11.3,12.28,5.67,19.88,5.66h8c2.34-1.69,3.5-2.66,3.5-2.93q0-.76-6-1.56-6-1-10.72-1.94c-3.12-.65-5.79-1.3-8-1.95a98.49,98.49,0,0,1-22-9.17Q57.71,21.44,57.12,21.44Zm.58,107.61c0,.66.46,1,1.37,1s2.21-.65,3.51-1.95l2.92-2.93A37.66,37.66,0,0,1,70,122a3.31,3.31,0,0,0,.39-1.37q0-.78-1.17-.78T63,124.18C59.46,126.91,57.7,128.54,57.7,129.05Zm6.24,2.15c0,.91.39,1.36,1.17,1.36s2.86-1.36,6.24-4.09,5.26-4.42,5.26-5.07-.39-.78-1.17-.78a4.09,4.09,0,0,0-3.31,1.75c-1.82,1.7-3.38,3.09-4.68,4.2A31.23,31.23,0,0,1,63.94,131.2ZM65.5,14.43v.19a.57.57,0,0,1,.2.39l.19.2h.78q1,0,5.27-3.32C74.66,9.55,76,8.06,76,7.41s-.39-.78-1.17-.78S72.45,7.8,69.6,10.14,65.5,13.78,65.5,14.43Zm5.07,119.3a1.52,1.52,0,0,0,1.56,1q1.17,0,5.65-3.51,4.48-3.9,4.49-4.68a.87.87,0,0,0-1-1q-1.17,0-5.46,3.51C72.84,131.27,71.09,132.82,70.57,133.73ZM71,17.35q0,.78,1.17.78a9.24,9.24,0,0,0,3.31-1.56,42.19,42.19,0,0,0,6-6c0-.13-.39-.59-1.17-1.37q-1.17,0-5.27,3.51T71,17.35Zm6,2.34a1,1,0,0,0,1.17,1.17q2.53,0,10.14-7.6v-.2a1.64,1.64,0,0,0-1.36-1q-1.17,0-5.66,3.31Q77,18.52,77,19.69Zm0,117a.78.78,0,0,0,.2.58h1.17q1.36,0,5.85-3.51c3-2.34,4.48-4,4.48-4.87q0-.78-1.17-.78c-1,0-3,1.24-6,3.7S77,136,77,136.66Zm5.85,3.12c.26.26.46.39.59.39H84q1.37,0,5.85-3.32,4.48-3.51,4.48-4.68c0-.65-.45-1-1.36-1s-2.92,1.17-5.65,3.51S83.11,138.74,82.85,139.78Zm.59-117.56c0,.66.51,1,1.56,1s2.85-1.17,5.84-3.51,4.68-3.9,4.68-4.68q0-.78-.39-.78H93.38c-.65,0-2.47,1.24-5.46,3.7S83.44,21.71,83.44,22.22Zm5.07,119.7a1.37,1.37,0,0,0,1.36,1q1.56,0,5.85-3.71,4.48-3.9,4.48-5.26Q96.5,133.93,88.51,141.92ZM100.2,131.2l1,1.56,1.56.78q4.86-2.34,4.87-31,0-2.34-.49-10.23T105.66,71q-.19-3.12-6-5.65a24.37,24.37,0,0,0-8.78-2.15H89.29l-.39.59a71.81,71.81,0,0,0,9.16,4.09q3.9,3.31,3.9,22.61v10.34a46.29,46.29,0,0,1-.3,4.77q-.28,2.84-.68,6.73t-.58,6.63c-.13,1.82-.2,3.38-.2,4.67ZM90.84,24.37c0,.65.39,1,1.17,1q2,0,5.46-2.92,3.7-3.12,3.71-5.07c0-.65-.27-1-.78-1Q98.84,16.37,90.84,24.37Zm2.54,121.06a1.2,1.2,0,0,0,1.36,1.36q1.37,0,5.66-3.7c2.85-2.47,4.29-4.09,4.29-4.87,0-.52-.33-.78-1-.78s-2.21,1-5.07,2.92a28.62,28.62,0,0,0-5.07,3.9C93.44,144.39,93.38,144.78,93.38,145.43ZM108.19,18.71a3.18,3.18,0,0,0-2.33.78l-1.76,1.76q-5.85,3.9-5.85,6,2.15,0,6.44-3.12c3-2.21,4.48-3.83,4.48-4.87C109.17,18.91,108.84,18.71,108.19,18.71ZM106.83,47q-1.17,0-4.68,3.51c-2.34,2.34-3.51,3.84-3.51,4.48.65,0,2.27-1.1,4.88-3.31s4.09-3.44,4.09-4.09C107.61,47.18,107.35,47,106.83,47Zm-3.12,9,1.56,1.56h.2q9-6.63,9-7.8c0-.52-.45-.78-1.36-.78s-2.54,1-5.26,2.93S103.71,55.17,103.71,56Zm1.56-27.88q0,.78.39.78h2.53c.39-.39,1-.91,1.66-1.56a26,26,0,0,1,2.44-1.95,20.1,20.1,0,0,0,2.44-2,19.11,19.11,0,0,0,1.65-1.86v-1q-1.95,0-6.43,3.12Q105.27,26.52,105.27,28.07Zm5.46,29.83q0,1.17.78,1.17,1,0,5.26-2.73c2.73-2,4.1-3.32,4.1-4.09s-.39-1.37-1.17-1.37A6,6,0,0,0,117,52c-1.17.72-1.82,1.4-2,2-1.82,1.82-3.12,2.8-3.9,2.92A1.35,1.35,0,0,0,110.73,57.9Zm3.12-29A1,1,0,0,0,115,30q1.17,0,5.07-3.31t3.9-4.49c0-.26-.33-.39-1-.39s-2.21,1-4.68,2.93c-1.3,1-2.31,1.88-3,2.53A9.35,9.35,0,0,0,113.85,28.85Zm.78,33.73c0,1,.32,1.56,1,1.56q1.37,0,6.24-4.29c3.51-2.86,5.26-4.61,5.26-5.27a1.65,1.65,0,0,0-1.36-1c-.39,0-2.28,1.24-5.65,3.7a52.36,52.36,0,0,0-5.27,4.29A2.2,2.2,0,0,0,114.63,62.58Zm1.17,6.63c0,1,.32,1.56,1,1.56s2.86-1.76,7-5.27,6-5.59,6-6.24-.26-1-.78-1q-.39,0-5.84,4.09c-3.51,2.6-5.63,4.23-6.34,4.88A2.7,2.7,0,0,0,115.8,69.21Zm12.47,48.73q-.39,0-5.45,3.9c-1.69,1.3-3,2.31-4,3a19.24,19.24,0,0,1-1.85,1.27c-.13.26-.29.55-.49.88a3.44,3.44,0,0,0-.29,1.65,4.23,4.23,0,0,0,2.73-1.17c.9-.78,1.75-1.56,2.53-2.34a12.65,12.65,0,0,1,2.15-1.36,12.34,12.34,0,0,0,2.14-1.36q2.92-2,2.92-3.51C128.66,118.27,128.53,117.94,128.27,117.94ZM116.58,91.23c0,.66.45,1,1.36,1s2.79-1.43,6-4.29a38.83,38.83,0,0,0,5.84-5.26,3.16,3.16,0,0,0,.59-2,4.84,4.84,0,0,0-4.09,1.75,62.82,62.82,0,0,1-5.66,4.29C117.94,88.7,116.58,90.2,116.58,91.23Zm0,22.42a.86.86,0,0,0,1,1c.39,0,2.27-1.5,5.66-4.49,1.42-.9,2.89-1.88,4.38-2.92a4.63,4.63,0,0,0,2.24-3.9q-2.15,0-7.6,4.29Q116.57,112.1,116.58,113.65Zm0,7.41a.69.69,0,0,0,.78.78,3,3,0,0,0,2.14-1l2-2,4.68-2.93q3.12-2,3.12-4.29c0-.9-.2-1.36-.59-1.36-.91,0-1.62.58-2.14,1.75Q116.58,118.33,116.58,121.06ZM117,76.22c0,.52.12.78.39.78s2.4-1.29,6-3.9a59.36,59.36,0,0,0,6.24-5.26,1.59,1.59,0,0,0,.39-1.17V65.5q-1.56,0-7.21,4.88Q117,75,117,76.22Zm12.67-2.92a6.91,6.91,0,0,0-2.73,1.07,25.9,25.9,0,0,0-2.63,1.95c-.85.72-1.69,1.4-2.54,2.05a14.91,14.91,0,0,1-2.43,1.56c-1.43,1-2.15,1.95-2.15,2.73v2c.91,0,3.32-1.56,7.21-4.68s5.85-5.27,5.85-6.05A.51.51,0,0,0,129.64,73.3ZM117.36,99a.69.69,0,0,0,.78.78h.19a32.59,32.59,0,0,1,4.49-4c2-1.5,4.22-3.15,6.82-5a1.12,1.12,0,0,0,.19-.78c0-1.17-.26-1.75-.78-1.75a13.44,13.44,0,0,0-3.12,2q-2.73,2-5.26,3.8Q117.35,96.89,117.36,99Zm0,6c0,1,.19,1.56.58,1.56.65,0,2.27-1,4.88-3.12q5.06-3.9,5.45-4.1a3.06,3.06,0,0,0,1.56-2.73.69.69,0,0,0-.78-.78,3.36,3.36,0,0,0-2,.69c-.65.45-1.3.94-1.94,1.46s-1.24,1-1.76,1.46a2.77,2.77,0,0,1-1,.68q-1.75,1.56-3,2.73A20.42,20.42,0,0,0,117.36,105.08ZM131.59,23h-.78q-1.37,0-5.07,3.12-3.51,2.93-3.51,4.29,3.31,0,9.94-6.63C132.17,23.27,132,23,131.59,23Z"/></g></g></svg>
